<svg xmlns="http://www.w3.org/2000/svg" xmlns:xlink="http://www.w3.org/1999/xlink" id="Layer_1" x="0" y="0" version="1.1" viewBox="0 0 841.89 684.92" xml:space="preserve" style="enable-background:new 0 0 841.89 684.92"><style type="text/css">.st0{fill:#fff}.st1{fill:url(#SVGID_1_)}.st2,.st3{fill:#27363b;stroke:#27363b}.st2{stroke-width:3;stroke-linecap:round;stroke-linejoin:round}.st3{stroke-miterlimit:10}</style><polygon points="200.26 373.31 222.1 423.47 327.33 525.78 313.83 481.64" class="st0"/><polygon points="432.81 368.5 435.99 421.01 545.73 523.21 552.82 478.85" class="st0"/><linearGradient id="SVGID_1_" x1="199.214" x2="666.14" y1="320.388" y2="320.388" gradientUnits="userSpaceOnUse"><stop offset=".099" style="stop-color:#27363b"/><stop offset=".309" style="stop-color:#eb4960"/><stop offset=".506" style="stop-color:#f4837d"/><stop offset=".688" style="stop-color:#fcd5b4"/><stop offset=".96" style="stop-color:#99b998"/></linearGradient><polygon points="199.21 370.91 431.78 159.14 666.14 365.6 552.82 478.85 432.81 368.5 313.83 481.64" class="st1"/><g><line x1="431.78" x2="199.21" y1="159.14" y2="370.91" class="st2"/><line x1="666.14" x2="431.78" y1="365.6" y2="159.14" class="st2"/><line x1="313.83" x2="432.81" y1="481.64" y2="368.25" class="st2"/><line x1="432.81" x2="552.82" y1="368.25" y2="478.85" class="st2"/><line x1="552.82" x2="666.14" y1="478.85" y2="365.6" class="st2"/><line x1="199.21" x2="313.83" y1="370.91" y2="481.64" class="st2"/><line x1="435.99" x2="327.33" y1="421.01" y2="525.78" class="st2"/><line x1="545.73" x2="435.99" y1="523.21" y2="421.01" class="st2"/><line x1="649.66" x2="545.73" y1="418.55" y2="523.21" class="st2"/><line x1="327.33" x2="222.1" y1="525.78" y2="423.47" class="st2"/><line x1="199.21" x2="222.1" y1="370.91" y2="423.47" class="st2"/><line x1="649.66" x2="666.14" y1="418.55" y2="365.6" class="st2"/><line x1="432.81" x2="435.99" y1="368.25" y2="421.01" class="st2"/><line x1="313.83" x2="327.33" y1="481.64" y2="525.78" class="st2"/><line x1="552.82" x2="545.73" y1="478.85" y2="523.21" class="st2"/></g><polygon points="313.83 481.64 327.33 525.78 435.99 421.01 432.81 368.25" class="st3"/><polygon points="552.82 478.85 545.73 523.21 649.66 418.55 663.48 368.25" class="st3"/></svg>